<?xml version="1.0" standalone="no"?>
<!DOCTYPE svg PUBLIC "-//W3C//DTD SVG 20010904//EN"
 "http://www.w3.org/TR/2001/REC-SVG-20010904/DTD/svg10.dtd">
<svg version="1.0" xmlns="http://www.w3.org/2000/svg"
 width="2100.000000pt" height="2100.000000pt" viewBox="0 0 2100.000000 2100.000000"
 preserveAspectRatio="xMidYMid meet">

<g transform="translate(0.000000,2100.000000) scale(0.100000,-0.100000)"
fill="#000000" stroke="none">
<path d="M7281 17548 l0 -233 599 -535 c485 -434 598 -539 593 -554 -3 -11
-795 -2836 -1759 -6279 l-1754 -6259 0 -234 0 -234 2030 0 2030 0 0 233 0 233
-505 570 c-278 313 -504 573 -501 579 2 6 165 606 362 1333 197 727 361 1322
365 1322 3 0 347 -189 765 -420 l759 -420 235 0 235 0 759 420 c418 231 762
420 765 420 3 0 168 -595 365 -1322 197 -728 360 -1327 362 -1333 3 -6 -223
-266 -501 -579 l-505 -569 0 -234 0 -233 2030 0 2030 0 0 234 0 234 -1754
6259 c-964 3443 -1756 6269 -1759 6279 -5 15 115 127 593 554 l599 535 0 233
1 232 -1515 0 -1515 0 0 -2226 0 -2226 630 -2336 c347 -1286 633 -2345 636
-2354 5 -17 -69 -18 -1456 -18 -1387 0 -1461 1 -1456 18 3 9 289 1068 636
2354 l630 2336 0 2226 0 2226 -1515 0 -1515 0 1 -232z m2909 -1994 l0 -2106
-741 -2746 c-407 -1511 -936 -3466 -1174 -4345 l-434 -1598 530 -596 529 -596
0 -114 0 -113 -1910 0 -1910 0 0 114 0 114 1785 6372 c1215 4334 1783 6376
1776 6384 -6 6 -287 259 -625 561 l-615 550 0 113 -1 112 1395 0 1395 0 0
-2106z m3409 1994 l0 -113 -615 -550 c-338 -302 -619 -555 -625 -561 -7 -8
560 -2045 1776 -6384 l1785 -6372 0 -114 0 -114 -1910 0 -1910 0 0 113 0 114
529 596 530 596 -415 1528 c-228 840 -756 2795 -1174 4345 l-760 2816 0 2106
0 2106 1395 0 1395 0 -1 -112z m-1503 -9358 l83 -305 0 -125 1 -125 -778 -430
-777 -430 -125 0 -125 0 -777 430 -778 430 0 122 c0 121 0 123 80 420 45 164
83 304 85 311 4 10 312 12 1516 10 l1512 -3 83 -305z"/>
<path d="M7617 17462 c54 -49 346 -311 648 -582 303 -272 549 -499 549 -504
-1 -6 -815 -2915 -1809 -6464 -995 -3548 -1806 -6454 -1803 -6457 2 -3 809 -4
1793 -3 l1788 3 -528 595 c-290 327 -539 607 -552 621 l-24 26 450 1659 c247
912 788 2911 1200 4442 l751 2783 0 1984 0 1985 -1280 0 -1280 0 97 -88z"/>
<path d="M10920 15565 l0 -1985 751 -2782 c412 -1531 953 -3530 1200 -4442
l450 -1659 -24 -26 c-13 -14 -262 -294 -552 -621 l-528 -595 1788 -3 c984 -1
1791 0 1793 3 3 3 -808 2909 -1803 6457 -994 3549 -1808 6458 -1809 6464 0 5
247 232 549 504 303 271 594 533 648 582 l97 88 -1280 0 -1280 0 0 -1985z"/>
<path d="M9094 8356 c-3 -14 -41 -155 -84 -313 l-78 -288 27 -16 c65 -41 1532
-849 1541 -849 9 0 1475 807 1541 849 l27 16 -77 285 c-43 157 -81 297 -85
313 l-6 27 -1400 0 -1400 0 -6 -24z"/>
</g>
</svg>
