<?xml version="1.0" standalone="no"?>
<!DOCTYPE svg PUBLIC "-//W3C//DTD SVG 20010904//EN"
 "http://www.w3.org/TR/2001/REC-SVG-20010904/DTD/svg10.dtd">
<svg version="1.0" xmlns="http://www.w3.org/2000/svg"
 width="512.000000pt" height="512.000000pt" viewBox="0 0 512.000000 512.000000"
 preserveAspectRatio="xMidYMid meet">

<g transform="translate(0.000000,512.000000) scale(0.100000,-0.100000)"
fill="#000000" stroke="none">
<path d="M2398 4029 c-687 -61 -1448 -534 -2096 -1303 -114 -135 -127 -158
-111 -189 44 -84 359 -429 548 -601 573 -521 1122 -798 1681 -847 579 -50
1222 209 1850 747 155 133 406 388 537 546 131 157 138 169 121 202 -28 53
-240 296 -387 445 -604 608 -1224 947 -1831 1001 -127 11 -184 11 -312 -1z
m399 -165 c260 -45 504 -174 698 -369 257 -258 388 -573 388 -935 0 -362 -131
-677 -388 -935 -255 -256 -574 -388 -935 -388 -219 0 -402 43 -594 140 -135
67 -229 136 -341 248 -256 255 -388 574 -388 935 0 361 132 680 388 935 112
112 207 181 340 248 265 133 538 173 832 121z m-1437 -426 c-1 -46 -28 -85
-85 -122 -17 -11 -49 -37 -71 -59 -23 -21 -55 -47 -72 -57 -16 -10 -51 -39
-76 -64 -25 -25 -51 -46 -59 -46 -7 0 -36 -24 -64 -52 -28 -29 -85 -82 -128
-118 -83 -69 -125 -110 -125 -122 0 -4 -29 -28 -65 -55 -36 -26 -65 -54 -65
-60 0 -7 -4 -13 -10 -13 -5 0 -24 -13 -42 -29 -18 -15 -48 -36 -65 -45 l-33
-16 53 -52 c28 -28 75 -66 102 -83 57 -37 110 -95 130 -141 7 -18 39 -49 76
-76 35 -25 75 -58 89 -72 13 -15 48 -41 77 -57 29 -17 53 -35 53 -40 0 -15
147 -159 161 -159 18 0 49 -31 49 -48 0 -15 56 -92 77 -105 8 -5 31 -25 53
-46 30 -29 40 -46 40 -69 0 -30 -2 -32 -39 -32 -31 0 -47 7 -74 34 -20 19 -42
38 -49 43 -8 4 -27 25 -42 46 -16 20 -34 37 -42 37 -7 0 -18 16 -25 35 -7 19
-17 35 -21 35 -12 0 -158 147 -158 159 0 5 -24 23 -53 40 -29 16 -64 42 -77
57 -14 14 -54 47 -89 72 -37 27 -69 58 -76 76 -20 47 -74 105 -134 143 -30 19
-69 52 -88 73 -19 21 -48 44 -64 50 -24 10 -29 18 -29 46 0 42 35 111 61 119
10 3 37 22 60 41 22 19 45 34 50 34 5 0 9 6 9 13 0 6 29 34 65 60 36 27 65 51
65 55 0 12 42 53 125 122 43 36 100 89 128 118 28 28 57 52 64 52 8 0 34 20
59 45 24 25 61 56 82 70 20 13 59 44 86 69 26 25 56 48 65 51 9 3 30 23 46 45
24 31 37 39 63 40 31 0 32 -1 32 -42z m2586 -44 c27 -25 84 -68 126 -96 44
-29 88 -67 103 -89 14 -21 37 -45 53 -53 15 -8 42 -34 60 -59 17 -25 54 -62
81 -82 28 -20 53 -45 57 -57 8 -28 102 -114 191 -176 18 -13 38 -38 45 -58 9
-27 24 -41 66 -62 31 -15 58 -37 63 -49 5 -13 15 -23 24 -23 11 0 15 -11 15
-38 0 -32 -5 -41 -27 -51 -45 -21 -103 -71 -144 -128 -22 -29 -78 -85 -123
-124 -46 -39 -89 -80 -95 -92 -7 -12 -33 -38 -59 -57 -26 -19 -102 -89 -169
-157 -67 -68 -126 -123 -132 -123 -16 0 -71 -51 -71 -66 0 -19 -53 -44 -95
-44 -33 0 -35 2 -35 35 0 28 5 37 30 50 17 9 30 21 30 29 0 17 39 52 73 65 15
6 32 22 37 36 5 14 13 25 17 25 5 0 51 42 103 93 52 50 116 108 142 127 26 19
52 45 59 57 6 12 49 53 94 91 46 39 95 88 110 109 15 21 52 61 81 88 l54 51
-53 27 c-41 20 -56 34 -65 61 -7 20 -27 45 -45 58 -89 62 -183 148 -191 176
-4 12 -29 37 -57 57 -27 20 -64 57 -81 82 -18 25 -45 51 -60 59 -16 8 -40 32
-54 54 -15 23 -52 56 -84 75 -31 19 -76 52 -101 73 -24 22 -59 47 -76 56 -27
14 -33 22 -33 50 0 37 9 44 56 45 24 1 43 -10 80 -45z"/>
<path d="M2460 3784 c-361 -34 -695 -225 -901 -517 -100 -142 -180 -334 -210
-507 -17 -96 -17 -304 0 -400 89 -509 481 -908 988 -1006 116 -23 329 -23 443
-1 503 98 889 483 986 984 23 117 23 329 0 446 -95 495 -487 889 -973 981 -85
16 -261 26 -333 20z m-66 -170 c3 -9 6 -31 6 -49 0 -19 5 -37 10 -40 6 -3 10
-31 10 -61 0 -53 -1 -54 -29 -54 -16 0 -45 -7 -64 -15 -20 -8 -55 -15 -77 -15
-36 0 -40 3 -40 25 0 29 -20 75 -32 75 -5 0 -8 17 -6 37 3 32 9 41 38 55 19 9
44 17 56 18 11 0 29 9 39 20 22 25 80 27 89 4z m-319 -194 c10 -22 24 -40 32
-40 9 0 13 -13 13 -39 0 -33 -4 -41 -24 -48 -52 -18 -197 -156 -228 -217 -11
-22 -44 -77 -72 -121 -87 -134 -136 -261 -136 -354 l0 -53 -72 7 c-40 4 -74 8
-75 9 -1 1 2 46 8 99 24 241 122 450 293 625 77 80 220 187 235 178 4 -3 16
-23 26 -46z m657 -363 c137 -50 241 -143 302 -270 138 -288 -5 -624 -312 -729
-94 -32 -230 -32 -324 0 -162 56 -279 172 -339 338 -17 46 -22 81 -22 164 0
114 17 178 70 269 75 128 216 224 373 255 56 11 187 -3 252 -27z"/>
<path d="M2413 2888 c-144 -77 -158 -93 -208 -244 -33 -99 -33 -137 -2 -219
33 -84 39 -92 97 -131 66 -45 107 -63 185 -85 122 -33 204 -24 268 28 16 13
34 23 41 23 20 0 91 77 114 123 36 72 47 132 32 180 -8 23 -17 47 -21 52 -4 6
-13 36 -20 69 -15 67 -43 115 -79 133 -14 6 -63 31 -110 54 -72 36 -96 43
-160 46 -69 4 -80 1 -137 -29z"/>
</g>
</svg>
