<?xml version="1.0" standalone="no"?>
<!DOCTYPE svg PUBLIC "-//W3C//DTD SVG 20010904//EN" "http://www.w3.org/TR/2001/REC-SVG-20010904/DTD/svg10.dtd">
<svg xmlns="http://www.w3.org/2000/svg" version="1.0" width="512.000000pt" height="512.000000pt" viewBox="0 0 512.000000 512.000000" preserveAspectRatio="xMidYMid meet">
<metadata>
Created by potrace 1.16, written by Peter Selinger 2001-2019
<meta name="Producer" content="Online-Convert"/></metadata>
<g transform="translate(0.000000,512.000000) scale(0.100000,-0.100000)" fill="#000000" stroke="none">
<path d="M1073 4738 c-101 -160 -140 -418 -93 -617 18 -75 76 -204 115 -255 13 -18 15 -17 42 15 105 129 272 279 411 370 40 26 74 50 75 53 1 2 -34 23 -78 45 -146 74 -272 197 -365 355 -29 48 -51 76 -62 76 -10 0 -30 -19 -45 -42z"/>
<path d="M3940 4704 c-94 -159 -237 -296 -378 -362 -35 -17 -63 -33 -63 -37 0 -3 33 -28 73 -54 139 -91 306 -241 411 -370 27 -32 29 -33 42 -15 39 51 97 180 115 255 24 102 26 257 5 359 -29 137 -106 300 -143 300 -11 0 -34 -29 -62 -76z"/>
<path d="M2270 4300 c-545 -100 -963 -434 -1221 -975 -42 -88 -134 -330 -134 -352 0 0 -40 13 -90 30 -83 29 -101 31 -220 32 -141 0 -168 -8 -228 -64 -46 -42 -61 -79 -61 -152 0 -57 5 -78 37 -143 64 -128 200 -252 374 -340 l72 -36 3 -762 3 -763 24 -70 c67 -199 170 -320 315 -368 66 -22 206 -22 272 0 187 62 324 274 341 526 3 48 6 87 7 87 1 0 48 -16 106 -36 242 -82 435 -114 689 -114 272 0 528 47 785 146 10 4 14 -17 19 -83 17 -252 154 -464 341 -526 66 -22 206 -22 272 0 145 48 248 169 315 368 l24 70 3 763 3 762 78 39 c168 85 306 215 373 350 27 52 32 76 32 130 0 73 -15 110 -61 152 -60 56 -87 64 -228 64 -119 -1 -137 -3 -220 -32 -49 -17 -90 -30 -90 -30 0 22 -92 264 -134 352 -249 522 -650 853 -1170 966 -143 31 -485 36 -631 9z m484 -646 c224 -43 435 -185 530 -357 48 -87 66 -156 66 -257 0 -154 -55 -277 -175 -395 -109 -108 -263 -188 -420 -220 -92 -19 -275 -21 -363 -5 -236 42 -453 182 -553 355 -70 121 -90 287 -49 416 107 342 531 546 964 463z m681 -1603 c73 -41 98 -143 52 -212 -50 -74 -259 -153 -532 -200 -173 -30 -502 -37 -690 -14 -215 26 -454 92 -570 158 -108 61 -115 204 -13 267 48 29 101 25 201 -16 211 -86 426 -118 732 -111 278 7 445 37 635 115 41 16 82 32 90 35 21 7 59 -2 95 -22z"/>
<path d="M2476 3351 c-17 -6 -16 -9 8 -25 64 -41 86 -138 46 -204 -57 -93 -197 -97 -256 -6 -16 24 -19 25 -25 8 -4 -11 -8 -49 -8 -86 -1 -89 27 -164 83 -222 66 -67 116 -89 216 -94 112 -5 180 19 250 88 69 70 93 138 88 250 -5 100 -27 150 -94 216 -58 56 -133 84 -222 83 -37 0 -75 -4 -86 -8z"/>
</g>
</svg>
