<?xml version="1.0" standalone="no"?>
<!DOCTYPE svg PUBLIC "-//W3C//DTD SVG 20010904//EN"
 "http://www.w3.org/TR/2001/REC-SVG-20010904/DTD/svg10.dtd">
<svg version="1.0" xmlns="http://www.w3.org/2000/svg"
 width="722.000000pt" height="722.000000pt" viewBox="0 0 722.000000 722.000000"
 preserveAspectRatio="xMidYMid meet">

<g transform="translate(0.000000,722.000000) scale(0.100000,-0.100000)"
fill="#000000" stroke="none">
<path d="M3450 5753 c-395 -23 -837 -196 -1170 -456 -161 -126 -362 -346 -474
-521 -405 -629 -455 -1422 -133 -2094 43 -89 130 -242 138 -242 5 0 174 173
197 202 12 15 8 28 -32 101 -188 345 -257 785 -187 1187 122 703 647 1280
1331 1464 186 49 271 60 490 60 214 0 302 -10 477 -56 l83 -21 192 73 c106 40
197 75 201 78 13 7 -142 74 -278 120 -255 87 -537 123 -835 105z"/>
<path d="M5230 5457 c-52 -19 -725 -275 -1900 -724 -63 -24 -167 -63 -230 -87
-438 -166 -728 -279 -748 -292 -62 -40 -82 -142 -39 -201 12 -18 211 -190 442
-384 231 -193 422 -353 424 -355 2 -1 -79 -87 -180 -191 -101 -103 -263 -269
-359 -368 -96 -99 -258 -265 -360 -370 -504 -516 -498 -509 -511 -553 -16 -56
0 -110 45 -150 49 -43 91 -48 173 -19 55 19 661 249 1903 724 63 24 167 63
230 87 438 166 728 279 748 292 62 40 82 142 40 201 -13 18 -212 190 -443 384
-231 193 -422 353 -424 355 -2 1 79 87 180 191 101 103 263 269 359 368 96 99
258 265 360 370 484 496 497 510 509 548 17 51 7 100 -30 142 -26 30 -80 55
-114 55 -5 0 -39 -11 -75 -23z"/>
<path d="M5314 4688 c-131 -136 -123 -114 -70 -211 147 -270 225 -607 213
-922 -11 -286 -67 -515 -188 -763 -231 -472 -666 -830 -1172 -966 -182 -49
-269 -60 -487 -60 -214 0 -302 10 -477 56 l-83 21 -192 -73 c-106 -40 -197
-75 -201 -78 -5 -2 29 -21 75 -42 726 -326 1576 -221 2208 273 161 126 362
346 474 521 405 629 455 1422 133 2094 -43 89 -130 242 -138 242 -3 0 -45 -42
-95 -92z"/>
</g>
</svg>
