<?xml version="1.0" standalone="no"?>
<!DOCTYPE svg PUBLIC "-//W3C//DTD SVG 20010904//EN"
 "http://www.w3.org/TR/2001/REC-SVG-20010904/DTD/svg10.dtd">
<svg version="1.0" xmlns="http://www.w3.org/2000/svg"
 width="512.000000pt" height="512.000000pt" viewBox="0 0 512.000000 512.000000"
 preserveAspectRatio="xMidYMid meet">

<g transform="translate(0.000000,512.000000) scale(0.100000,-0.100000)"
fill="#000000" stroke="none">
<path d="M1852 4964 c-411 -274 -801 -435 -1235 -509 -120 -20 -144 -27 -166
-49 l-26 -26 -3 -923 c-3 -958 1 -1073 39 -1262 62 -308 226 -652 451 -948
380 -499 975 -930 1541 -1114 l107 -36 110 37 c565 187 1143 602 1523 1094
232 299 403 655 466 967 38 189 42 304 39 1262 l-3 923 -26 26 c-23 23 -46 30
-165 50 -419 70 -796 222 -1200 485 l-121 79 -624 0 -624 0 -83 -56z m1295
-279 c335 -225 760 -411 1128 -491 l125 -28 0 -822 c0 -497 -4 -863 -10 -925
-64 -632 -534 -1284 -1250 -1733 -130 -82 -353 -193 -483 -240 l-97 -36 -98
36 c-225 83 -498 234 -715 398 -583 437 -961 1022 -1016 1570 -7 70 -11 409
-11 931 l0 821 124 27 c324 71 679 217 1007 415 74 44 143 88 154 96 17 13 90
15 555 16 l535 0 52 -35z"/>
<path d="M1975 4449 c-141 -88 -405 -222 -565 -287 -115 -46 -311 -111 -435
-144 l-50 -14 0 -794 c0 -730 1 -802 18 -885 105 -517 501 -1045 1064 -1421
127 -85 335 -195 465 -248 l88 -35 96 39 c483 197 982 609 1263 1044 121 187
216 416 258 621 17 83 18 155 18 885 l0 794 -50 14 c-343 91 -719 254 -1007
435 l-106 67 -474 -1 -473 -1 -110 -69z m933 -765 c22 -15 22 -18 22 -280 l0
-264 264 0 c262 0 265 0 280 -22 14 -19 16 -70 16 -352 0 -292 -2 -331 -17
-348 -15 -17 -37 -18 -280 -18 l-263 0 0 -262 c0 -229 -2 -264 -17 -280 -15
-17 -39 -18 -351 -18 -298 0 -337 2 -354 17 -17 15 -18 37 -18 280 l0 263
-262 0 c-229 0 -264 2 -280 17 -17 15 -18 39 -18 347 0 284 2 335 16 354 15
22 18 22 280 22 l264 0 0 264 c0 262 0 265 22 280 19 14 70 16 348 16 278 0
329 -2 348 -16z"/>
</g>
</svg>
