<?xml version="1.0" standalone="no"?>
<!DOCTYPE svg PUBLIC "-//W3C//DTD SVG 20010904//EN"
 "http://www.w3.org/TR/2001/REC-SVG-20010904/DTD/svg10.dtd">
<svg version="1.0" xmlns="http://www.w3.org/2000/svg"
 width="512.000000pt" height="512.000000pt" viewBox="0 0 512.000000 512.000000"
 preserveAspectRatio="xMidYMid meet">

<g transform="translate(0.000000,512.000000) scale(0.100000,-0.100000)"
fill="#000000" stroke="none">
<path d="M937 4570 c-36 -11 -56 -37 -57 -71 0 -14 31 -110 69 -212 l68 -186
-23 -58 c-92 -225 -356 -438 -699 -563 -131 -48 -164 -95 -111 -157 l24 -28
341 -3 341 -3 0 -822 0 -823 -29 -11 c-57 -21 -57 -20 -83 -538 -15 -286 -22
-489 -17 -503 19 -49 52 -53 423 -50 366 3 367 3 386 54 5 12 -2 230 -17 500
-27 517 -27 516 -84 537 l-29 11 0 823 0 823 520 0 520 0 0 -100 0 -100 -143
0 c-137 0 -144 -1 -165 -23 l-22 -23 0 -578 0 -577 25 -24 24 -25 361 0 361 0
24 25 25 24 0 579 0 579 -23 21 c-22 20 -33 22 -165 22 l-142 0 0 100 0 100
520 0 520 0 0 -823 0 -823 -29 -11 c-57 -21 -57 -20 -84 -537 -15 -273 -22
-488 -17 -500 19 -51 19 -51 386 -54 371 -3 404 1 423 50 11 31 -38 965 -53
998 -6 14 -26 32 -43 40 l-33 15 0 822 0 822 341 3 341 3 24 28 c53 62 20 109
-111 157 -342 124 -608 339 -699 563 l-23 58 68 186 c38 102 69 198 69 212 -1
36 -22 60 -61 71 -43 12 -3202 12 -3242 0z m3060 -628 c76 -158 211 -302 401
-429 45 -30 82 -57 82 -59 0 -2 -865 -4 -1922 -4 -1706 1 -1921 3 -1903 16 11
8 60 43 110 77 162 112 309 281 373 427 l25 60 1396 0 1396 0 42 -88z m-2623
-2524 c7 -74 36 -626 36 -680 l0 -38 -245 0 -245 0 0 33 c0 17 9 192 20 387
11 195 20 356 20 358 0 1 92 2 204 2 l204 0 6 -62z m2786 60 c0 -2 9 -163 20
-358 11 -195 20 -370 20 -387 l0 -33 -245 0 -245 0 0 38 c0 54 29 606 36 680
l6 62 204 0 c112 0 204 -1 204 -2z"/>
</g>
</svg>
