<?xml version="1.0" standalone="no"?>
<!DOCTYPE svg PUBLIC "-//W3C//DTD SVG 20010904//EN"
 "http://www.w3.org/TR/2001/REC-SVG-20010904/DTD/svg10.dtd">
<svg version="1.0" xmlns="http://www.w3.org/2000/svg"
 width="512.000000pt" height="512.000000pt" viewBox="0 0 512.000000 512.000000"
 preserveAspectRatio="xMidYMid meet">

<g transform="translate(0.000000,512.000000) scale(0.100000,-0.100000)"
fill="#000000" stroke="none">
<path d="M2315 5109 c-800 -83 -1501 -518 -1927 -1196 -487 -774 -516 -1777
-75 -2578 200 -364 487 -676 841 -913 238 -159 600 -311 876 -366 214 -43 295
-51 530 -51 236 0 333 10 532 51 880 184 1615 842 1898 1702 92 278 125 491
125 802 0 301 -32 513 -116 775 -124 390 -330 728 -622 1024 -399 404 -893
653 -1462 737 -123 18 -478 26 -600 13z m580 -358 c369 -55 693 -192 1000
-424 108 -82 314 -291 402 -407 231 -307 378 -665 428 -1043 19 -149 19 -448
0 -582 -65 -458 -244 -849 -539 -1178 -347 -387 -797 -628 -1307 -702 -124
-17 -413 -20 -539 -5 -515 64 -993 313 -1338 698 -286 319 -459 677 -538 1117
-21 118 -30 470 -15 602 37 320 148 646 311 913 168 275 438 546 713 717 248
153 561 264 853 302 132 17 428 12 569 -8z"/>
<path d="M2297 4674 c-669 -97 -1258 -530 -1562 -1149 -103 -210 -168 -421
-199 -653 -18 -131 -21 -416 -5 -542 118 -952 847 -1705 1778 -1834 145 -21
417 -21 562 0 440 61 839 258 1156 571 189 188 308 351 419 578 148 305 214
590 214 933 0 268 -34 480 -115 711 -259 741 -908 1279 -1674 1385 -139 20
-437 19 -574 0z m1093 -1239 l0 -245 -285 0 -285 0 0 -875 0 -875 -260 0 -260
0 0 875 0 875 -285 0 -285 0 0 245 0 245 830 0 830 0 0 -245z"/>
</g>
</svg>
