<?xml version="1.0" standalone="no"?>
<!DOCTYPE svg PUBLIC "-//W3C//DTD SVG 20010904//EN"
 "http://www.w3.org/TR/2001/REC-SVG-20010904/DTD/svg10.dtd">
<svg version="1.0" xmlns="http://www.w3.org/2000/svg"
 width="2100.000000pt" height="2100.000000pt" viewBox="0 0 2100.000000 2100.000000"
 preserveAspectRatio="xMidYMid meet">

<g transform="translate(0.000000,2100.000000) scale(0.100000,-0.100000)"
fill="#000000" stroke="none">
<path d="M7401 17548 l0 -113 615 -550 c338 -302 619 -555 625 -561 7 -8 -561
-2050 -1776 -6384 l-1785 -6372 0 -114 0 -114 1910 0 1910 0 0 113 0 114 -529
596 -530 596 434 1598 c238 879 767 2834 1174 4345 l741 2746 0 2106 0 2106
-1395 0 -1395 0 1 -112z m2679 -1994 l0 -1996 -721 -2671 c-396 -1470 -931
-3451 -1190 -4403 -258 -952 -471 -1744 -474 -1760 -5 -27 38 -79 545 -649
l551 -620 -1797 -3 c-988 -1 -1799 0 -1801 1 -2 2 809 2904 1803 6448 993
3544 1806 6453 1807 6464 2 16 -137 145 -548 515 -302 271 -594 533 -648 582
l-97 88 1285 0 1285 0 0 -1996z"/>
<path d="M10810 15554 l0 -2106 760 -2816 c418 -1550 946 -3505 1174 -4345
l415 -1528 -530 -596 -529 -596 0 -114 0 -113 1910 0 1910 0 0 114 0 114
-1785 6372 c-1216 4339 -1783 6376 -1776 6384 6 6 287 259 625 561 l615 550 0
113 1 112 -1395 0 -1395 0 0 -2106z m2583 1908 c-54 -49 -345 -311 -648 -582
-411 -370 -550 -499 -548 -515 1 -11 814 -2920 1807 -6464 994 -3544 1805
-6446 1803 -6448 -2 -1 -813 -2 -1801 -1 l-1798 3 547 615 c301 338 549 620
552 627 3 7 -209 801 -471 1765 -261 964 -799 2955 -1195 4425 l-721 2671 0
1996 0 1996 1285 0 1285 0 -97 -88z"/>
<path d="M8985 8488 c-2 -7 -40 -147 -85 -311 -80 -297 -80 -299 -80 -420 l0
-122 778 -430 777 -430 125 0 125 0 777 430 778 430 -1 125 0 125 -83 305 -83
305 -1512 3 c-1204 2 -1512 0 -1516 -10z m3001 -408 c46 -168 83 -312 83 -320
1 -16 -1541 -874 -1569 -874 -24 0 -1570 858 -1570 871 0 10 153 584 165 621
4 10 290 12 1406 10 l1402 -3 83 -305z"/>
</g>
</svg>
