<?xml version="1.0" standalone="no"?>
<!DOCTYPE svg PUBLIC "-//W3C//DTD SVG 20010904//EN"
 "http://www.w3.org/TR/2001/REC-SVG-20010904/DTD/svg10.dtd">
<svg version="1.0" xmlns="http://www.w3.org/2000/svg"
 width="512.000000pt" height="512.000000pt" viewBox="0 0 512.000000 512.000000"
 preserveAspectRatio="xMidYMid meet">

<g transform="translate(0.000000,512.000000) scale(0.100000,-0.100000)"
fill="#000000" stroke="none">
<path d="M2315 4014 c-489 -65 -998 -322 -1494 -754 -274 -238 -651 -653 -651
-717 0 -65 428 -529 695 -754 580 -488 1141 -729 1691 -729 553 0 1128 250
1699 739 284 242 685 680 685 747 0 47 -294 384 -516 591 -713 667 -1437 968
-2109 877z m459 -119 c570 -75 1198 -444 1748 -1026 139 -147 277 -308 278
-324 0 -18 -172 -217 -318 -367 -522 -535 -1060 -861 -1607 -970 -148 -30
-480 -33 -620 -5 -386 76 -764 255 -1134 535 -230 175 -545 476 -733 702 l-87
104 47 56 c563 671 1179 1106 1774 1255 219 54 440 68 652 40z"/>
<path d="M2376 3869 c-496 -68 -916 -413 -1084 -889 -54 -154 -67 -236 -67
-435 0 -136 5 -200 18 -263 118 -537 514 -934 1050 -1049 115 -25 409 -25 524
0 173 37 342 109 493 210 98 65 283 251 350 351 351 525 295 1213 -136 1666
-191 200 -424 332 -689 390 -115 25 -347 35 -459 19z m422 -133 c473 -103 837
-461 943 -926 29 -124 35 -330 15 -455 -98 -594 -603 -1025 -1201 -1025 -599
0 -1096 422 -1201 1020 -20 114 -14 347 11 450 38 158 104 311 187 433 58 85
188 219 279 287 144 107 341 193 509 220 41 6 82 13 90 15 37 9 302 -5 368
-19z"/>
<path d="M2290 3565 c-25 -6 -64 -18 -88 -25 -46 -15 -47 -16 -13 -91 l16 -35
78 24 79 25 -7 46 c-10 68 -13 70 -65 56z"/>
<path d="M1978 3427 c-205 -141 -348 -326 -424 -550 -29 -84 -54 -219 -54
-288 l0 -49 59 0 58 0 6 84 c14 173 89 362 201 502 59 73 167 170 236 211 17
9 30 21 30 26 0 13 -51 97 -58 97 -4 -1 -28 -15 -54 -33z"/>
<path d="M2422 3064 c-193 -51 -337 -196 -388 -389 -18 -67 -17 -197 1 -270
47 -178 192 -326 374 -379 70 -20 209 -21 286 -1 87 23 171 72 239 140 164
164 202 407 99 623 -37 76 -159 198 -235 235 -118 56 -261 72 -376 41z m293
-134 c46 -18 77 -40 131 -94 96 -96 118 -151 119 -296 0 -99 -2 -109 -33 -173
-42 -85 -113 -156 -199 -199 -64 -31 -73 -33 -178 -33 -103 0 -114 2 -177 32
-88 41 -160 113 -201 201 -30 63 -32 74 -32 177 0 98 3 116 26 165 53 111 145
195 252 230 83 27 207 23 292 -10z"/>
</g>
</svg>
