<?xml version="1.0" standalone="no"?>
<!DOCTYPE svg PUBLIC "-//W3C//DTD SVG 20010904//EN" "http://www.w3.org/TR/2001/REC-SVG-20010904/DTD/svg10.dtd">
<svg xmlns="http://www.w3.org/2000/svg" version="1.0" width="512.000000pt" height="512.000000pt" viewBox="0 0 512.000000 512.000000" preserveAspectRatio="xMidYMid meet">
<metadata>
Created by potrace 1.16, written by Peter Selinger 2001-2019
<meta name="Producer" content="Online-Convert"/></metadata>
<g transform="translate(0.000000,512.000000) scale(0.100000,-0.100000)" fill="#000000" stroke="none">
<path d="M1033 4781 c-62 -38 -162 -225 -204 -381 -20 -72 -23 -110 -24 -250 0 -142 3 -176 23 -243 30 -105 72 -196 126 -271 l44 -62 -67 -135 c-38 -74 -79 -162 -92 -197 -23 -62 -25 -63 -54 -57 -16 3 -87 8 -157 12 -111 5 -136 3 -196 -16 -281 -85 -361 -374 -180 -647 74 -111 201 -228 331 -305 l57 -34 0 -595 c0 -373 4 -619 11 -656 48 -272 213 -499 431 -592 58 -25 74 -27 198 -27 125 0 140 3 200 28 85 36 192 117 252 191 49 61 117 183 137 247 l11 35 78 -10 c101 -13 1103 -13 1204 0 l78 10 11 -35 c20 -64 88 -186 137 -247 60 -74 167 -156 252 -191 59 -24 77 -27 190 -28 153 0 211 16 320 90 159 108 280 309 319 529 7 37 11 283 11 656 l0 596 43 24 c122 67 281 213 351 323 85 133 113 286 73 402 -38 110 -135 199 -259 236 -61 19 -85 21 -196 16 -70 -4 -142 -9 -159 -13 -21 -4 -33 -2 -33 4 0 19 -87 214 -134 301 l-45 83 45 63 c53 76 96 167 126 272 20 67 23 101 23 243 -1 193 -18 274 -90 427 -84 178 -129 223 -226 223 -78 0 -112 -26 -169 -126 -65 -116 -99 -161 -178 -236 -68 -64 -211 -148 -252 -148 -10 0 -52 16 -94 35 -112 51 -266 100 -391 126 -154 31 -454 38 -615 15 -178 -26 -385 -88 -522 -157 -21 -11 -46 -19 -56 -19 -43 0 -185 83 -254 148 -79 75 -113 120 -178 236 -57 100 -91 126 -169 126 -38 0 -66 -6 -88 -19z m318 -678 l55 -38 -103 -103 -104 -102 -19 43 c-44 100 -63 257 -44 357 l7 32 76 -75 c42 -41 101 -92 132 -114z m2638 52 c1 -94 -15 -175 -49 -252 l-19 -44 -104 103 -103 103 66 47 c36 25 94 76 130 112 76 78 77 78 79 -69z m-1292 -9 c361 -21 726 -213 976 -514 137 -164 270 -408 341 -627 46 -139 53 -152 96 -181 50 -34 118 -32 216 7 126 51 283 53 305 5 35 -76 -144 -264 -337 -357 -75 -35 -132 -83 -135 -112 -1 -7 -2 -311 -3 -677 -1 -728 1 -702 -62 -839 -79 -174 -230 -246 -360 -171 -95 54 -158 156 -194 314 -12 53 -31 107 -42 121 -44 56 -109 68 -249 46 -139 -22 -360 -32 -689 -32 -344 0 -543 10 -717 36 -96 14 -145 9 -188 -19 -39 -26 -55 -59 -76 -153 -45 -209 -161 -343 -297 -343 -68 0 -114 22 -175 82 -51 51 -94 132 -124 233 -16 55 -18 117 -19 725 -1 366 -2 670 -3 677 -3 28 -59 77 -127 109 -141 67 -295 201 -336 292 -34 75 -7 102 104 102 67 0 153 -20 219 -50 86 -39 191 -20 231 43 8 12 32 74 52 137 46 140 146 351 222 468 221 339 509 549 884 644 105 26 304 49 370 42 14 -2 66 -5 117 -8z"/>
<path d="M2369 3830 c-314 -57 -578 -237 -694 -473 -59 -121 -75 -188 -75 -317 0 -129 16 -196 75 -317 103 -209 322 -375 595 -451 88 -25 110 -27 290 -27 182 0 202 2 293 27 270 76 490 243 592 451 59 121 75 188 75 317 0 129 -16 196 -75 316 -101 207 -322 377 -585 450 -82 23 -118 27 -270 29 -96 2 -196 0 -221 -5z m387 -340 c173 -44 324 -152 395 -282 33 -60 34 -68 34 -168 0 -100 -1 -108 -34 -168 -71 -131 -220 -237 -396 -282 -108 -28 -282 -27 -391 0 -173 44 -324 152 -395 282 -33 60 -34 68 -34 168 0 100 1 108 34 168 70 129 221 237 391 281 106 28 289 28 396 1z"/>
<path d="M2472 3180 c-48 -30 -72 -75 -72 -140 0 -100 60 -160 160 -160 100 0 160 60 160 160 0 100 -60 160 -160 160 -37 0 -66 -6 -88 -20z"/>
<path d="M1672 2060 c-49 -30 -72 -75 -72 -141 0 -104 43 -141 245 -208 238 -79 443 -111 715 -111 272 0 477 32 715 111 202 67 245 104 245 208 0 141 -115 198 -271 135 -389 -159 -915 -168 -1311 -23 -138 51 -217 60 -266 29z"/>
</g>
</svg>
