<?xml version="1.0" standalone="no"?>
<!DOCTYPE svg PUBLIC "-//W3C//DTD SVG 20010904//EN"
 "http://www.w3.org/TR/2001/REC-SVG-20010904/DTD/svg10.dtd">
<svg version="1.0" xmlns="http://www.w3.org/2000/svg"
 width="722.000000pt" height="722.000000pt" viewBox="0 0 722.000000 722.000000"
 preserveAspectRatio="xMidYMid meet">

<g transform="translate(0.000000,722.000000) scale(0.100000,-0.100000)"
fill="#000000" stroke="none">
<path d="M3455 5754 c-313 -24 -647 -128 -925 -288 -292 -169 -576 -447 -752
-736 -167 -274 -269 -577 -305 -905 -12 -104 -8 -387 6 -490 56 -399 222 -787
460 -1073 28 -34 51 -64 51 -68 0 -4 -47 -55 -103 -113 -111 -114 -134 -155
-122 -217 9 -48 58 -101 107 -115 47 -12 82 -3 306 84 l142 56 88 -58 c248
-165 493 -268 779 -326 156 -32 263 -40 468 -38 439 4 835 136 1220 407 123
86 353 314 451 446 240 324 377 674 421 1075 12 104 8 387 -6 490 -56 399
-222 787 -460 1073 -28 34 -51 64 -51 68 0 4 47 55 103 113 111 114 134 155
122 217 -9 48 -58 101 -107 115 -47 12 -82 3 -306 -84 l-142 -56 -88 58 c-290
193 -616 315 -952 355 -63 8 -345 15 -405 10z m343 -305 c135 -14 279 -45 402
-86 109 -36 355 -151 345 -161 -7 -8 22 4 -595 -232 -713 -273 -722 -276 -850
-324 -438 -166 -728 -279 -748 -292 -62 -40 -82 -143 -39 -203 12 -17 211
-189 442 -382 231 -193 422 -353 424 -355 2 -1 -79 -87 -180 -191 -101 -103
-261 -266 -354 -363 -94 -96 -231 -237 -305 -313 l-135 -138 -33 38 c-52 62
-145 201 -195 295 -308 575 -284 1294 62 1843 145 232 365 453 586 592 348
218 772 316 1173 272z m921 -513 c-2 -3 -56 -58 -119 -123 -63 -65 -264 -271
-446 -458 -429 -441 -456 -471 -472 -508 -16 -36 -9 -97 13 -130 8 -12 190
-168 404 -347 214 -179 390 -327 390 -330 1 -4 -554 -219 -989 -383 -58 -22
-127 -48 -155 -59 -27 -11 -72 -28 -100 -38 -27 -10 -102 -39 -165 -63 -489
-187 -572 -218 -575 -215 -2 2 49 57 113 123 890 913 903 927 920 968 16 36 9
97 -13 130 -8 12 -190 168 -404 347 -214 179 -390 327 -390 330 -1 3 198 81
442 174 243 93 494 189 557 213 63 24 126 48 140 53 14 5 61 23 105 40 44 17
121 46 170 65 50 19 194 74 320 123 205 80 268 102 254 88z m419 -286 c411
-600 428 -1404 43 -2015 -145 -232 -365 -453 -586 -592 -544 -340 -1227 -375
-1803 -91 -67 33 -120 63 -117 66 7 8 -22 -4 595 232 713 273 722 276 850 324
438 166 728 279 748 292 54 35 79 127 50 189 -6 14 -200 184 -431 377 -231
194 -426 358 -433 366 -12 11 15 43 169 200 100 102 259 265 352 362 94 96
231 237 305 313 l135 138 33 -38 c18 -21 58 -76 90 -123z"/>
</g>
</svg>
