<?xml version="1.0" standalone="no"?>
<!DOCTYPE svg PUBLIC "-//W3C//DTD SVG 20010904//EN"
 "http://www.w3.org/TR/2001/REC-SVG-20010904/DTD/svg10.dtd">
<svg version="1.0" xmlns="http://www.w3.org/2000/svg"
 width="512.000000pt" height="512.000000pt" viewBox="0 0 512.000000 512.000000"
 preserveAspectRatio="xMidYMid meet">

<g transform="translate(0.000000,512.000000) scale(0.100000,-0.100000)"
fill="#000000" stroke="none">
<path d="M1765 5027 c-418 -274 -851 -440 -1274 -488 -91 -11 -108 -16 -135
-40 l-31 -27 0 -1044 c0 -1150 -2 -1112 65 -1365 109 -416 360 -832 720 -1193
395 -396 898 -710 1358 -846 l93 -28 77 23 c328 96 746 320 1046 560 411 327
705 684 900 1092 76 159 117 272 156 430 55 225 55 229 55 1342 l0 1029 -31
28 c-25 22 -45 29 -100 34 -433 43 -879 211 -1315 497 l-135 89 -655 0 -654 0
-140 -93z m1509 -186 c382 -248 787 -412 1191 -481 65 -11 121 -20 126 -20 6
0 9 -367 6 -977 -3 -875 -5 -988 -20 -1073 -88 -480 -351 -937 -771 -1336
-320 -305 -708 -554 -1091 -700 -133 -51 -177 -51 -310 0 -410 156 -813 422
-1145 755 -438 439 -679 902 -730 1400 -6 64 -10 452 -10 1016 l0 914 48 6
c428 59 904 246 1299 509 l98 66 594 0 594 0 121 -79z"/>
<path d="M1965 4619 c-302 -194 -640 -348 -952 -434 -70 -19 -145 -40 -166
-46 -26 -7 -44 -21 -57 -42 -19 -31 -20 -56 -20 -805 0 -470 4 -811 10 -870
37 -335 190 -680 450 -1014 87 -112 341 -365 467 -466 139 -110 332 -236 483
-315 137 -71 344 -157 379 -157 12 0 75 21 139 46 429 167 886 509 1188 890
261 328 417 677 454 1016 6 59 10 399 10 868 0 823 1 813 -48 839 -9 5 -79 25
-155 45 -321 84 -662 236 -970 432 l-101 64 -515 0 -516 0 -80 -51z m1179
-228 c160 -96 376 -205 538 -272 125 -51 368 -133 432 -144 l36 -7 0 -720 c0
-757 -4 -844 -45 -1004 -149 -573 -686 -1166 -1340 -1480 -189 -90 -196 -92
-281 -59 -181 72 -404 201 -587 339 -480 362 -794 805 -900 1271 -20 86 -21
126 -24 871 l-4 782 37 6 c64 12 306 94 432 145 161 67 389 182 542 275 l125
76 454 0 454 0 131 -79z"/>
<path d="M2143 3716 l-28 -24 -3 -236 -3 -236 -220 0 c-236 0 -264 -5 -291
-53 -10 -16 -14 -109 -16 -362 -2 -187 -1 -359 3 -383 3 -23 17 -55 30 -70
l23 -27 236 -3 236 -3 0 -222 c0 -246 3 -261 60 -289 31 -16 72 -18 390 -18
318 0 359 2 390 18 57 28 60 43 60 289 l0 222 236 3 236 3 23 27 c13 15 27 47
30 70 4 24 5 196 3 383 -2 253 -6 346 -16 362 -27 48 -55 53 -291 53 l-220 0
-3 236 -3 236 -28 24 -28 24 -389 0 -389 0 -28 -24z m667 -396 c0 -148 4 -227
12 -245 23 -50 48 -55 288 -55 l220 0 0 -250 0 -250 -220 0 c-240 0 -265 -5
-288 -55 -8 -18 -12 -98 -12 -250 l0 -225 -250 0 -250 0 0 225 c0 152 -4 232
-12 250 -23 50 -48 55 -288 55 l-220 0 0 250 0 250 220 0 c148 0 227 4 245 12
50 23 55 48 55 288 l0 220 250 0 250 0 0 -220z"/>
</g>
</svg>
