<?xml version="1.0" standalone="no"?>
<!DOCTYPE svg PUBLIC "-//W3C//DTD SVG 20010904//EN"
 "http://www.w3.org/TR/2001/REC-SVG-20010904/DTD/svg10.dtd">
<svg version="1.0" xmlns="http://www.w3.org/2000/svg"
 width="512.000000pt" height="512.000000pt" viewBox="0 0 512.000000 512.000000"
 preserveAspectRatio="xMidYMid meet">

<g transform="translate(0.000000,512.000000) scale(0.100000,-0.100000)"
fill="#000000" stroke="none">
<path d="M931 4569 c-32 -13 -50 -38 -51 -70 0 -14 31 -110 69 -212 l68 -186
-23 -58 c-92 -225 -358 -439 -699 -563 -131 -48 -164 -95 -111 -157 l24 -28
341 -3 341 -3 0 -822 0 -822 -33 -15 c-17 -8 -37 -26 -43 -40 -7 -15 -21 -203
-33 -450 -30 -590 -30 -545 -3 -572 l23 -23 363 0 c389 0 387 0 406 51 5 11
-3 234 -17 500 -27 517 -27 516 -84 537 l-29 11 0 823 0 823 520 0 520 0 0
-100 0 -100 -143 0 c-137 0 -144 -1 -165 -23 l-22 -23 0 -578 0 -577 25 -24
24 -25 361 0 361 0 24 25 25 24 0 579 0 579 -23 21 c-22 20 -33 22 -165 22
l-142 0 0 100 0 100 520 0 520 0 0 -823 0 -823 -29 -11 c-57 -21 -57 -20 -84
-537 -15 -270 -22 -488 -17 -500 19 -51 17 -51 406 -51 l363 0 23 23 c27 27
27 -18 -3 572 -12 247 -26 435 -33 450 -6 14 -26 32 -43 40 l-33 15 0 822 0
822 341 3 341 3 24 28 c53 62 20 109 -111 157 -343 125 -607 338 -699 563
l-23 58 68 186 c38 102 69 198 69 212 -1 33 -19 57 -54 71 -36 13 -3221 13
-3255 -1z m3109 -161 c0 -7 -17 -59 -37 -115 l-37 -103 -1406 0 -1406 0 -37
103 c-20 56 -37 108 -37 115 0 9 303 12 1480 12 1177 0 1480 -3 1480 -12z
m-43 -466 c77 -159 210 -302 403 -430 l85 -57 -963 -3 c-529 -1 -1395 -1
-1924 0 l-963 3 85 57 c193 128 326 271 403 430 l42 88 1395 0 1395 0 42 -88z
m-2717 -1477 l0 -825 -115 0 -115 0 0 825 0 825 115 0 115 0 0 -825z m2790 0
l0 -825 -115 0 -115 0 0 825 0 825 115 0 115 0 0 -825z m-1260 0 l0 -465 -250
0 -250 0 0 465 0 465 250 0 250 0 0 -465z m-1436 -1047 c7 -74 36 -626 36
-680 l0 -38 -245 0 -245 0 0 33 c0 17 9 192 20 387 11 195 20 356 20 358 0 1
92 2 204 2 l204 0 6 -62z m2786 60 c0 -2 9 -163 20 -358 11 -195 20 -370 20
-387 l0 -33 -245 0 -245 0 0 33 c0 53 30 638 36 695 l5 52 205 0 c112 0 204
-1 204 -2z"/>
</g>
</svg>
