<?xml version="1.0" standalone="no"?>
<!DOCTYPE svg PUBLIC "-//W3C//DTD SVG 20010904//EN"
 "http://www.w3.org/TR/2001/REC-SVG-20010904/DTD/svg10.dtd">
<svg version="1.0" xmlns="http://www.w3.org/2000/svg"
 width="512.000000pt" height="512.000000pt" viewBox="0 0 512.000000 512.000000"
 preserveAspectRatio="xMidYMid meet">

<g transform="translate(0.000000,512.000000) scale(0.100000,-0.100000)"
fill="#000000" stroke="none">
<path d="M2315 5109 c-798 -81 -1501 -518 -1927 -1196 -487 -774 -516 -1777
-75 -2578 199 -363 487 -676 837 -910 242 -162 602 -313 880 -369 214 -43 295
-51 530 -51 236 0 333 10 532 51 879 183 1616 843 1897 1699 93 282 126 493
126 805 0 301 -32 513 -116 775 -124 390 -330 728 -622 1024 -398 403 -895
653 -1462 737 -122 18 -477 26 -600 13z m525 -220 c326 -38 675 -161 958 -337
288 -179 570 -460 752 -752 68 -108 179 -338 220 -455 113 -323 159 -726 120
-1050 -32 -269 -111 -533 -231 -775 -132 -264 -265 -447 -473 -648 -368 -356
-816 -570 -1346 -643 -217 -30 -548 -13 -790 41 -514 115 -979 403 -1316 815
-195 238 -366 577 -443 878 -144 561 -88 1117 164 1632 271 553 758 984 1340
1183 335 115 692 153 1045 111z"/>
<path d="M2258 4594 c-431 -63 -834 -264 -1145 -572 -182 -180 -300 -343 -408
-567 -142 -291 -205 -567 -205 -900 0 -332 64 -615 204 -900 112 -229 229
-390 415 -573 281 -277 632 -464 1031 -547 170 -36 493 -46 675 -21 222 31
438 97 628 193 226 113 372 218 546 392 322 322 523 724 585 1170 21 148 21
429 0 574 -97 673 -513 1251 -1120 1555 -199 99 -423 169 -641 197 -142 19
-432 18 -565 -1z m571 -80 c421 -62 808 -254 1104 -550 178 -178 279 -318 388
-539 79 -160 127 -302 166 -484 26 -119 28 -141 28 -386 0 -245 -2 -267 -28
-386 -66 -312 -198 -599 -382 -834 -81 -103 -238 -261 -340 -340 -274 -214
-590 -348 -936 -399 -140 -21 -418 -21 -558 0 -344 50 -667 188 -936 399 -87
68 -257 237 -328 325 -215 267 -362 612 -412 962 -19 133 -19 413 0 546 124
870 798 1553 1665 1685 132 21 434 21 569 1z"/>
<path d="M1730 3435 l0 -245 285 0 285 0 0 -875 0 -875 260 0 260 0 0 875 0
875 285 0 285 0 0 245 0 245 -830 0 -830 0 0 -245z"/>
</g>
</svg>
